<svg width="30" height="30" viewBox="0 0 30 30" fill="none" xmlns="http://www.w3.org/2000/svg">
<path d="M13.2374 16.7625C13.7499 17.25 13.7499 18.05 13.2374 18.5375C12.7499 19.025 11.9499 19.025 11.4624 18.5375C10.2916 17.365 9.63403 15.7757 9.63403 14.1187C9.63403 12.4618 10.2916 10.8725 11.4624 9.7L15.8874 5.275C17.0599 4.10422 18.6492 3.44664 20.3061 3.44664C21.9631 3.44664 23.5524 4.10422 24.7249 5.275C25.8957 6.44754 26.5533 8.03678 26.5533 9.69375C26.5533 11.3507 25.8957 12.94 24.7249 14.1125L22.8624 15.975C22.8749 14.95 22.7124 13.925 22.3624 12.95L22.9499 12.35C23.3003 12.0034 23.5785 11.5907 23.7684 11.1358C23.9582 10.6809 24.056 10.1929 24.056 9.7C24.056 9.2071 23.9582 8.71908 23.7684 8.26421C23.5785 7.80934 23.3003 7.39664 22.9499 7.05C22.6033 6.69958 22.1906 6.42139 21.7357 6.23152C21.2808 6.04166 20.7928 5.9439 20.2999 5.9439C19.807 5.9439 19.319 6.04166 18.8641 6.23152C18.4092 6.42139 17.9965 6.69958 17.6499 7.05L13.2374 11.4625C12.887 11.8091 12.6088 12.2218 12.4189 12.6767C12.2291 13.1316 12.1313 13.6196 12.1313 14.1125C12.1313 14.6054 12.2291 15.0934 12.4189 15.5483C12.6088 16.0032 12.887 16.4159 13.2374 16.7625ZM16.7624 11.4625C17.2499 10.975 18.0499 10.975 18.5374 11.4625C19.7082 12.635 20.3658 14.2243 20.3658 15.8813C20.3658 17.5382 19.7082 19.1275 18.5374 20.3L14.1124 24.725C12.9399 25.8958 11.3506 26.5534 9.69365 26.5534C8.03668 26.5534 6.44743 25.8958 5.2749 24.725C4.10412 23.5525 3.44653 21.9632 3.44653 20.3063C3.44653 18.6493 4.10412 17.06 5.2749 15.8875L7.1374 14.025C7.1249 15.05 7.2874 16.075 7.6374 17.0625L7.0499 17.65C6.69948 17.9966 6.42128 18.4093 6.23142 18.8642C6.04156 19.3191 5.9438 19.8071 5.9438 20.3C5.9438 20.7929 6.04156 21.2809 6.23142 21.7358C6.42128 22.1907 6.69948 22.6034 7.0499 22.95C7.39654 23.3004 7.80924 23.5786 8.26411 23.7685C8.71898 23.9583 9.20699 24.0561 9.6999 24.0561C10.1928 24.0561 10.6808 23.9583 11.1357 23.7685C11.5906 23.5786 12.0033 23.3004 12.3499 22.95L16.7624 18.5375C17.1128 18.1909 17.391 17.7782 17.5809 17.3233C17.7707 16.8684 17.8685 16.3804 17.8685 15.8875C17.8685 15.3946 17.7707 14.9066 17.5809 14.4517C17.391 13.9968 17.1128 13.5841 16.7624 13.2375C16.641 13.1237 16.5442 12.9863 16.4781 12.8336C16.4119 12.681 16.3778 12.5164 16.3778 12.35C16.3778 12.1836 16.4119 12.019 16.4781 11.8664C16.5442 11.7137 16.641 11.5763 16.7624 11.4625Z" fill="#000"/>
</svg>
